HIERARCHY
ROOT RootJoint
{
    OFFSET   0.000000   0.000000   0.000000
    CHANNELS 6 Xposition Yposition Zposition Xrotation Yrotation Zrotation
    JOINT pelvis_lowerback
    {
        OFFSET   0.000000   0.093605   0.000000
        CHANNELS 3 Xrotation Yrotation Zrotation
        JOINT lowerback_torso
        {
            OFFSET   0.000000   0.100000   0.000000
            CHANNELS 3 Xrotation Yrotation Zrotation
            JOINT torso_head
            {
                OFFSET   0.000000   0.282350   0.000000
                CHANNELS 3 Xrotation Yrotation Zrotation
                End Site
                {
                    OFFSET   0.000000   0.192650   0.000000
                }
            }
            JOINT rTorso_Clavicle
            {
                OFFSET  -0.001000   0.157500   0.000000
                CHANNELS 3 Xrotation Yrotation Zrotation
                JOINT rShoulder
                {
                    OFFSET  -0.117647   0.000000   0.000000
                    CHANNELS 3 Xrotation Yrotation Zrotation
                    JOINT rElbow
                    {
                        OFFSET  -0.245000   0.000000   0.000000
                        CHANNELS 3 Xrotation Yrotation Zrotation
                        JOINT rWrist
                        {
                            OFFSET  -0.240000   0.000000   0.000000
                            CHANNELS 3 Xrotation Yrotation Zrotation
                            End Site
                            {
                                OFFSET  -0.116353  -0.002500   0.000000
                            }
                        }
                    }
                }
            }
            JOINT lTorso_Clavicle
            {
                OFFSET   0.001000   0.157500   0.000000
                CHANNELS 3 Xrotation Yrotation Zrotation
                JOINT lShoulder
                {
                    OFFSET   0.117647   0.000000   0.000000
                    CHANNELS 3 Xrotation Yrotation Zrotation
                    JOINT lElbow
                    {
                        OFFSET   0.245000   0.000000   0.000000
                        CHANNELS 3 Xrotation Yrotation Zrotation
                        JOINT lWrist
                        {
                            OFFSET   0.240000   0.000000   0.000000
                            CHANNELS 3 Xrotation Yrotation Zrotation
                            End Site
                            {
                                OFFSET   0.116353  -0.002500   0.000000
                            }
                        }
                    }
                }
            }
        }
    }
    JOINT rHip
    {
        OFFSET  -0.100000  -0.051395   0.000000
        CHANNELS 3 Xrotation Yrotation Zrotation
        JOINT rKnee
        {
            OFFSET   0.000000  -0.410000   0.000000
            CHANNELS 3 Xrotation Yrotation Zrotation
            JOINT rAnkle
            {
                OFFSET   0.000000  -0.390000   0.000000
                CHANNELS 3 Xrotation Yrotation Zrotation
                JOINT rToeJoint
                {
                    OFFSET   0.000000  -0.050000   0.130000
                    CHANNELS 3 Xrotation Yrotation Zrotation
                    End Site
                    {
                        OFFSET  -0.010000   0.002000   0.060000
                    }
                }
            }
        }
    }
    JOINT lHip
    {
        OFFSET   0.100000  -0.051395   0.000000
        CHANNELS 3 Xrotation Yrotation Zrotation
        JOINT lKnee
        {
            OFFSET   0.000000  -0.410000   0.000000
            CHANNELS 3 Xrotation Yrotation Zrotation
            JOINT lAnkle
            {
                OFFSET   0.000000  -0.390000   0.000000
                CHANNELS 3 Xrotation Yrotation Zrotation
                JOINT lToeJoint
                {
                    OFFSET   0.000000  -0.050000   0.130000
                    CHANNELS 3 Xrotation Yrotation Zrotation
                    End Site
                    {
                        OFFSET   0.010000   0.002000   0.060000
                    }
                }
            }
        }
    }
}
MOTION
Frames: 17
Frame Time:   0.008333
 -2.320838   0.883929   4.026237  40.033173 -10.189530   2.117511  16.658229  -1.181642   3.790158  -6.753679  -4.693181   1.913526   1.038554   1.014344  -3.811347 -10.581275   2.860095 -20.874370 -26.601680  -0.644577  -2.253840   0.267990  40.200813  -0.190522   2.840913   1.685087  -3.903720 -13.174622 -10.857273  23.951677 -34.464313 -16.918581   7.470603   0.169627 -38.134202   0.049856   0.185271  -8.758413  12.886058 -64.271778  -8.780569  -7.323608  47.251833  -0.020426  -0.045794   1.272039  -5.225421  10.939286 -10.902445  -0.003126   0.012821 -65.451696   3.460985   9.745587  55.460122   0.046400   0.032072   4.545081   6.352367  -6.789308 -45.986581  -0.011975   0.009166
 -2.325719   0.899574   4.040763  39.620882  -9.796533   1.059995  14.333687  -1.203505   4.864567  -6.351326  -4.883269   1.971181   2.216981   0.701241  -3.974610 -10.117871   2.391640 -22.536163 -27.522830  -0.278742  -3.228827   0.289770  38.157161  -0.205005   3.027657   1.446755  -3.924146 -12.615731  -9.668979  24.927505 -33.867190 -16.933046   8.088064   0.164695 -36.855366   0.032936   0.243946  -8.793804  13.106843 -61.419977  -9.455582  -6.318394  45.973384  -0.016640  -0.046548   2.284962  -5.360501  11.269898  -9.301281  -0.002766   0.014456 -62.776147   2.839746  10.075239  52.046619   0.041042   0.018230   7.804989   6.313563  -7.559836 -45.789330  -0.009832   0.008499
 -2.330792   0.914873   4.055721  39.171944  -9.425131  -0.087218  12.039116  -1.269523   5.971591  -5.947678  -5.044581   2.100813   3.347850   0.391383  -4.091595  -9.669119   1.989443 -24.181950 -28.372351   0.134208  -4.165748   0.297967  36.233671  -0.211439   3.213803   1.023185  -3.904786 -12.065520  -8.519602  25.811384 -33.268327 -16.919797   8.626422   0.158206 -35.647871   0.019982   0.315172  -8.749558  12.952972 -58.577965 -10.095400  -5.200660  44.968862  -0.013739  -0.045065   3.232533  -5.477749  11.581913  -7.869237  -0.001370   0.015294 -60.114659   2.279782  10.581805  48.632315   0.036297   0.004334  11.301152   6.307369  -8.285419 -45.631522  -0.008234   0.007899
 -2.335897   0.929776   4.070976  38.734702  -9.062903  -1.205396   9.804394  -1.382749   7.021299  -5.616858  -5.192955   2.237700   4.395520   0.100078  -4.178795  -9.255801   1.613176 -25.759369 -29.159457   0.557843  -5.054966   0.295984  34.447110  -0.211766   3.392331   0.630295  -3.905849 -11.558549  -7.438171  26.624673 -32.702421 -16.903267   9.120837   0.151146 -34.521556   0.010998   0.385605  -8.702559  12.696615 -55.830401 -10.656994  -4.083365  44.114375  -0.011507  -0.042264   4.121417  -5.581338  11.874428  -6.553499   0.000436   0.015071 -57.549575   1.773379  11.162776  45.315603   0.033637  -0.006586  14.870158   6.306311  -8.992606 -44.368977  -0.009736   0.015627
 -2.340932   0.944177   4.086447  38.309902  -8.735031  -2.265152   7.643188  -1.527585   7.993389  -5.358948  -5.324033   2.361337   5.364467  -0.171862  -4.249496  -8.877636   1.254432 -27.257892 -29.888277   0.978982  -5.894654   0.287046  32.786649  -0.207564   3.562806   0.291522  -3.934343 -11.104204  -6.418130  27.383495 -32.174601 -16.883692   9.588486   0.143809 -33.470893   0.005000   0.453889  -8.659261  12.435814 -53.199714 -11.139624  -2.999304  43.363890  -0.009779  -0.038616   4.953625  -5.673653  12.147893  -5.346307   0.002244   0.013767 -55.086882   1.315919  11.800498  42.143545   0.032875  -0.013735  18.315941   6.296519  -9.642340 -41.560503  -0.014621   0.031931
 -2.345824   0.958008   4.102076  37.902323  -8.458550  -3.252784   5.557023  -1.694201   8.882200  -5.168991  -5.434379   2.466175   6.261899  -0.425356  -4.309487  -8.532221   0.910054 -28.673609 -30.562457   1.390965  -6.684454   0.273517  31.242414  -0.200048   3.725581   0.000483  -3.983887 -10.704957  -5.450926  28.094310 -31.685182 -16.857823  10.036838   0.136301 -32.489740   0.001184   0.518903  -8.615368  12.202177 -50.704432 -11.547729  -1.971472  42.692985  -0.008443  -0.034479   5.732002  -5.756439  12.403148  -4.240218   0.003826   0.011590 -52.706332   0.903772  12.492618  39.194150   0.033570  -0.017128  21.639024   6.284861 -10.233302 -37.343177  -0.021983   0.052590
 -2.350549   0.971291   4.117768  37.522409  -8.216762  -4.165868   3.550232  -1.884388   9.689981  -5.043318  -5.530037   2.554221   7.093245  -0.661856  -4.361243  -8.220015   0.574377 -30.003131 -31.186282   1.785791  -7.425905   0.257106  29.804514  -0.190165   3.880807  -0.256153  -4.049831 -10.359316  -4.531580  28.759795 -31.233168 -16.823571  10.468848   0.128584 -31.572656  -0.001167   0.579586  -8.566583  12.009988 -48.360937 -11.888266  -1.023504  42.081997  -0.007455  -0.030271   6.459539  -5.831256  12.641266  -3.227474   0.005131   0.009025 -50.408286   0.536111  13.232614  36.496139   0.035036  -0.017994  24.793427   6.275252 -10.773759 -32.549454  -0.029230   0.071943
 -2.354289   0.983978   4.132910  37.088612  -7.838651  -4.011597   1.528617  -2.125161   9.217803  -4.795278  -5.877502   2.580690   7.775142  -0.763474  -4.184889  -7.948783   0.398400 -30.679789 -31.834855   2.601998  -8.172551   0.241148  28.281738  -0.185001   4.083696  -0.661900  -4.533604  -9.971426  -3.978540  29.107339 -30.664806 -16.961500  11.029296   0.121853 -30.485270  -0.001145   0.625708  -8.397784  12.257675 -46.361543 -11.588889  -1.254989  41.112374  -0.008681  -0.026071   7.885700  -5.996563  12.761858  -1.957968   0.009914   0.002401 -48.781136   1.128588  13.038666  36.010302   0.028051  -0.015888  24.485520   6.392586 -11.302900 -27.535308  -0.004482   0.096459
 -2.357607   0.996413   4.147477  36.599951  -7.465519  -3.663840  -0.316516  -2.313831   8.605860  -4.525882  -6.209474   2.473705   8.374580  -0.851878  -4.032772  -7.653254   0.282712 -31.214081 -32.418015   3.389148  -8.788289   0.220675  26.875008  -0.175475   4.270980  -1.017891  -5.007510  -9.533823  -3.510850  29.303312 -30.115372 -17.090436  11.458519   0.110853 -29.475005  -0.001541   0.656912  -8.205334  12.495514 -44.509898 -11.244298  -1.783663  40.011882  -0.010464  -0.021706   9.221853  -6.157140  12.871355  -0.726533   0.013294  -0.003544 -47.337235   1.759426  12.681045  35.992068   0.022468  -0.012713  24.191281   6.498997 -11.799726 -22.739114   0.016231   0.109570
 -2.360705   1.008613   4.161392  36.083213  -7.132712  -3.290863  -1.983983  -2.443763   7.988214  -4.223275  -6.504759   2.322796   8.921497  -0.931060  -3.896733  -7.351858   0.196212 -31.656480 -32.944564   4.131105  -9.311347   0.198582  25.567630  -0.163057   4.449724  -1.321641  -5.386490  -9.082392  -3.081945  29.389658 -29.587308 -17.190841  11.791094   0.098039 -28.532692  -0.002373   0.686448  -8.027570  12.622072 -42.824264 -10.920160  -2.401534  38.919624  -0.012059  -0.017692  10.466731  -6.307706  12.974717   0.398360   0.015166  -0.007960 -46.016163   2.341913  12.338614  36.075126   0.017981  -0.009908  23.923489   6.600201 -12.263438 -17.949960   0.033847   0.115549
 -2.363651   1.020546   4.174627  35.547906  -6.829459  -2.939645  -3.476705  -2.529639   7.395660  -3.886345  -6.771987   2.163089   9.429474  -1.003032  -3.770133  -7.055854   0.124875 -32.025005 -33.423464   4.822720  -9.762388   0.176521  24.349029  -0.149100   4.621063  -1.595653  -5.679298  -8.633204  -2.682574  29.396738 -29.084410 -17.264660  12.052188   0.084874 -27.651278  -0.003389   0.714513  -7.856328  12.650415 -41.301624 -10.627139  -3.050460  37.876697  -0.013313  -0.014316  11.627461  -6.447646  13.073310   1.422560   0.015992  -0.010876 -44.812279   2.866157  12.045818  36.173274   0.014367  -0.007627  23.675618   6.697518 -12.695500 -13.183894   0.049109   0.116661
 -2.366469   1.032166   4.187194  34.997941  -6.544233  -2.623626  -4.804338  -2.583710   6.836901  -3.517223  -7.019226   2.007106   9.905459  -1.069006  -3.651296  -6.770669   0.062114 -32.331455 -33.861348   5.463540 -10.154345   0.155442  23.211399  -0.134639   4.785160  -1.853919  -5.902159  -8.191867  -2.311664  29.345983 -28.607680 -17.318578  12.257407   0.072171 -26.826806  -0.004416   0.740868  -7.688170  12.603871 -39.929258 -10.364148  -3.709211  36.891160  -0.014227  -0.011610  12.710111  -6.577352  13.167526   2.355143   0.016128  -0.012543 -43.721560   3.335744  11.803946  36.264762   0.011467  -0.005817  23.445305   6.791023 -13.098010  -8.808743   0.060727   0.112759
 -2.369169   1.043429   4.199128  34.435875  -6.270349  -2.345331  -5.979979  -2.614629   6.313989  -3.119727  -7.251352   1.859494  10.353242  -1.129714  -3.539842  -6.498216   0.005390 -32.585574 -34.263194   6.056044 -10.496372   0.135863  22.148650  -0.120386   4.942198  -2.102621  -6.067988  -7.760020  -1.969558  29.252815 -28.156608 -17.359124  12.417249   0.060384 -26.056354  -0.005350   0.766169  -7.524943  12.499255 -38.692778 -10.127876  -4.367329  35.961917  -0.014828  -0.009496  13.720044  -6.697493  13.257479   3.204570   0.015807  -0.013255 -42.737201   3.756618  11.607093  36.343739   0.009149  -0.004401  23.230416   6.880740 -13.472962  -4.800194   0.069112   0.105684
 -2.371535   1.054344   4.209354  33.688516  -6.353164  -1.928488  -6.390613  -2.400562   5.645475  -3.136158  -7.360933   1.649674  10.597895  -1.195658  -3.284960  -6.586673   0.458143 -32.355787 -34.518003   6.946064 -10.760910   0.112972  21.629933  -0.104316   4.930884  -2.900417  -6.612377  -7.554094  -2.019291  28.943859 -28.044941 -17.541175  12.519119   0.049080 -25.848453  -0.003188   0.653784  -6.964741  12.529656 -37.914606  -9.551689  -4.987925  35.981305  -0.011803  -0.007599  13.977530  -6.578244  12.997975   3.392125   0.013653  -0.010807 -42.060061   4.191131  11.397949  37.556528   0.006764  -0.002912  22.087433   7.020720 -13.552391  -3.110895   0.058826   0.085902
 -2.373640   1.064922   4.218584  32.865825  -6.561362  -1.521601  -6.617864  -2.135195   5.004438  -3.036848  -7.406656   1.437824  10.794294  -1.257677  -3.055138  -6.568773   0.998138 -32.042978 -34.732578   7.851965 -10.902797   0.092548  21.194879  -0.089290   4.914706  -3.457752  -7.148023  -7.314631  -2.126736  28.593342 -27.936368 -17.757840  12.573241   0.039451 -25.691031  -0.001810   0.554376  -6.586869  12.713545 -37.295539  -9.010788  -5.554818  36.099212  -0.009198  -0.006196  14.216787  -6.465349  12.755177   3.520185   0.011427  -0.008832 -41.486078   4.572401  11.166416  38.876082   0.005125  -0.003368  21.021690   7.153499 -13.621001  -1.631124   0.049329   0.068093
 -2.375530   1.075128   4.226983  31.994713  -6.820551  -1.152123  -6.704762  -1.844370   4.412556  -2.819561  -7.416912   1.242679  10.970697  -1.315435  -2.846088  -6.484799   1.569408 -31.702569 -34.913953   8.737385 -10.965882   0.075045  20.808607  -0.075885   4.909632  -3.855983  -7.547378  -7.044642  -2.262342  28.226174 -27.821916 -17.982897  12.581718   0.031428 -25.557183  -0.000962   0.474937  -6.312634  12.856887 -36.779502  -8.517920  -6.068803  36.204829  -0.007206  -0.005109  14.440400  -6.360516  12.528865   3.634257   0.009472  -0.007226 -40.992265   4.916007  10.909987  40.132195   0.004315  -0.004472  20.028759   7.277810 -13.682019  -0.270763   0.041535   0.052667
 -2.377249   1.084911   4.234669  31.091972  -7.093576  -0.827690  -6.670951  -1.543299   3.872077  -2.504992  -7.407691   1.068189  11.135240  -1.368895  -2.652731  -6.361781   2.148003 -31.355709 -35.070896   9.589975 -10.978102   0.060327  20.460014  -0.064164   4.913000  -4.154864  -7.828560  -6.754705  -2.416659  27.853617 -27.703737 -18.209509  12.555203   0.024822 -25.440468  -0.000473   0.409637  -6.101174  12.926410 -36.347420  -8.066232  -6.533698  36.285546  -0.005683  -0.004215  14.648473  -6.263153  12.317855   3.734298   0.007795  -0.005897 -40.578465   5.228485  10.631809  41.295697   0.004131  -0.005587  19.101450   7.394006 -13.736740   0.974749   0.035335   0.039645
